<?xml version="1.0" standalone="no"?>
<!DOCTYPE svg PUBLIC "-//W3C//DTD SVG 20010904//EN"
 "http://www.w3.org/TR/2001/REC-SVG-20010904/DTD/svg10.dtd">
<svg version="1.0" xmlns="http://www.w3.org/2000/svg"
 width="106.000000pt" height="50.000000pt" viewBox="0 0 106.000000 50.000000"
 preserveAspectRatio="xMidYMid meet">
<metadata>
Created by potrace 1.10, written by Peter Selinger 2001-2011
</metadata>
<g transform="translate(0.000000,50.000000) scale(0.050000,-0.050000)"
fill="#ffffff" stroke="none">
<path d="M659 736 c23 -24 41 -55 41 -69 0 -13 10 -31 22 -38 15 -10 18 1 8
33 -17 54 -67 118 -94 118 -10 0 1 -20 23 -44z"/>
<path d="M560 741 c0 -10 9 -24 20 -31 11 -7 19 -28 19 -46 -1 -25 -7 -22 -20
11 -18 45 -86 62 -108 27 -6 -10 7 -14 29 -8 31 8 46 -4 67 -54 34 -80 62 -47
44 51 -11 61 -51 100 -51 50z"/>
<path d="M53 726 c-30 -29 -14 -306 17 -306 21 0 30 21 30 71 0 106 146 100
156 -6 13 -129 44 -61 44 95 0 93 -8 160 -20 160 -11 0 -20 -31 -20 -70 0 -68
-2 -70 -80 -70 -75 0 -80 4 -80 59 0 59 -23 91 -47 67z"/>
<path d="M813 726 c-7 -7 -13 -79 -13 -159 l0 -147 90 0 c50 0 90 9 90 20 0
11 -27 20 -60 20 l-60 0 0 129 c0 120 -17 168 -47 137z"/>
<path d="M1033 727 c-29 -30 -14 -307 17 -307 24 0 30 31 30 160 0 147 -11
182 -47 147z"/>
<path d="M1180 704 c-55 -44 -41 -115 26 -135 115 -36 116 -121 1 -100 -68 13
-94 -14 -35 -37 144 -55 235 97 97 162 -85 41 -87 99 -3 90 58 -6 74 24 22 44
-47 18 -59 15 -108 -24z"/>
<path d="M1369 722 c-17 -16 15 -42 52 -42 35 0 39 -15 39 -130 0 -102 6 -130
30 -130 24 0 30 28 30 129 0 114 5 129 41 135 22 3 40 14 40 23 -1 16 -217 31
-232 15z"/>
<path d="M1660 582 c0 -133 6 -162 31 -162 40 0 34 302 -6 315 -19 6 -25 -33
-25 -153z"/>
<path d="M1833 699 c-140 -110 -11 -331 155 -267 60 23 33 50 -36 37 -59 -11
-73 -6 -102 39 -63 96 20 219 114 170 20 -11 38 -10 45 1 37 59 -107 74 -176
20z"/>
<path d="M373 707 c-7 -8 -13 -49 -13 -92 0 -177 194 -257 325 -133 58 55 59
58 7 20 -59 -43 -179 -56 -229 -24 -17 11 6 20 67 27 51 6 104 22 117 36 18
20 15 22 -17 9 -136 -52 -255 -1 -245 105 8 71 8 71 -12 52z"/>
</g>
</svg>
