<?xml version="1.0" standalone="no"?>
<!DOCTYPE svg PUBLIC "-//W3C//DTD SVG 20010904//EN"
 "http://www.w3.org/TR/2001/REC-SVG-20010904/DTD/svg10.dtd">
<svg version="1.0" xmlns="http://www.w3.org/2000/svg"
 width="212.000000pt" height="101.000000pt" viewBox="0 0 212.000000 101.000000"
 preserveAspectRatio="xMidYMid meet">
<metadata>
Created by potrace 1.10, written by Peter Selinger 2001-2011
</metadata>
<g transform="translate(0.000000,101.000000) scale(0.050000,-0.050000)"
fill="#ffffff" stroke="none">
<path d="M1430 1507 c-66 -36 -149 -72 -185 -79 -66 -13 -110 -48 -60 -48 31
0 119 -88 153 -154 36 -71 27 -248 -17 -320 -50 -83 -5 -68 61 20 73 98 69
278 -10 391 -32 46 -54 86 -50 89 4 4 46 23 92 43 78 34 163 103 144 117 -4 4
-62 -23 -128 -59z"/>
<path d="M960 1530 c-33 -40 -9 -124 39 -140 89 -28 162 81 97 146 -33 33
-106 30 -136 -6z"/>
<path d="M1513 1457 c-34 -20 -32 -26 33 -94 157 -164 190 -371 88 -552 -43
-77 -47 -91 -16 -63 167 152 165 502 -4 687 -46 51 -50 52 -101 22z"/>
<path d="M749 1395 c-227 -268 -178 -683 103 -876 340 -234 816 -68 929 324
23 82 11 71 -58 -52 -145 -256 -465 -347 -740 -209 -191 95 -169 118 65 68
l137 -29 179 92 c125 65 172 99 158 113 -27 27 -249 -39 -231 -68 21 -34 -33
-78 -95 -78 -34 0 -53 8 -46 20 7 11 35 20 63 20 100 0 33 48 -104 75 -126 23
-216 21 -314 -8 -147 -43 -147 476 -1 638 18 19 27 35 21 35 -6 0 -36 -29 -66
-65z"/>
<path d="M856 1405 c-33 -37 -96 -154 -96 -177 0 -8 26 22 59 67 32 45 68 87
80 94 25 16 28 51 4 51 -9 0 -31 -16 -47 -35z"/>
<path d="M991 1298 c-82 -72 -97 -121 -18 -59 142 112 298 -21 282 -241 l-10
-141 37 56 c152 230 -96 556 -291 385z"/>
<path d="M2755 1264 c-184 -23 -174 -231 17 -316 73 -32 108 -59 108 -84 0
-79 -87 -107 -190 -61 -69 32 -115 -7 -66 -56 54 -54 216 -59 279 -9 122 96
90 221 -75 294 -160 71 -132 202 32 145 46 -16 69 -16 86 1 44 44 -79 100
-191 86z"/>
<path d="M20 980 l0 -280 49 0 c46 0 49 7 55 125 l6 125 130 0 130 0 6 -125
c6 -118 9 -125 55 -125 l49 0 0 280 0 280 -50 0 c-48 0 -50 -5 -50 -120 l0
-120 -140 0 -140 0 0 120 c0 115 -2 120 -50 120 l-50 0 0 -280z"/>
<path d="M2000 980 l0 -280 158 0 c141 0 158 4 168 40 9 37 0 40 -108 40
l-118 0 0 240 0 240 -50 0 -50 0 0 -280z"/>
<path d="M2413 985 c3 -268 4 -275 46 -275 42 0 43 8 47 275 l4 275 -50 0 -50
0 3 -275z"/>
<path d="M3020 1220 c0 -34 13 -40 90 -40 l90 0 0 -241 c0 -239 0 -242 45
-235 43 6 45 14 51 241 l5 235 80 0 c66 0 79 7 79 40 0 38 -13 40 -220 40
-207 0 -220 -2 -220 -40z"/>
<path d="M3540 980 l0 -280 50 0 50 0 0 280 0 280 -50 0 -50 0 0 -280z"/>
<path d="M3850 1217 c-150 -118 -142 -380 14 -478 118 -74 401 -16 320 65 -20
20 -33 20 -64 0 -190 -118 -383 180 -216 335 46 43 163 55 215 22 19 -12 39
-11 55 3 104 86 -215 138 -324 53z"/>
<path d="M2347 529 c-7 -18 -2 -42 10 -54 29 -29 95 29 74 63 -20 32 -70 27
-84 -9z"/>
</g>
</svg>
