<?xml version="1.0" standalone="no"?>
<!DOCTYPE svg PUBLIC "-//W3C//DTD SVG 20010904//EN"
 "http://www.w3.org/TR/2001/REC-SVG-20010904/DTD/svg10.dtd">
<svg version="1.0" xmlns="http://www.w3.org/2000/svg"
 width="212.000000pt" height="101.000000pt" viewBox="0 0 212.000000 101.000000"
 preserveAspectRatio="xMidYMid meet">
<metadata>
Created by potrace 1.10, written by Peter Selinger 2001-2011
</metadata>
<g transform="translate(0.000000,101.000000) scale(0.100000,-0.100000)"
fill="#ffffff" stroke="none">
<path d="M477 794 c-12 -13 -8 -42 8 -48 25 -9 46 5 43 28 -3 21 -37 34 -51
20z"/>
<path d="M658 794 c-4 -3 -31 -16 -62 -28 -54 -22 -55 -23 -32 -35 42 -23 59
-94 35 -144 -10 -21 -9 -21 10 2 28 31 28 99 1 134 l-20 25 30 12 c16 7 35 18
41 26 11 13 8 20 -3 8z"/>
<path d="M393 728 c-24 -36 -28 -52 -28 -114 0 -65 3 -76 31 -111 70 -88 194
-109 271 -47 43 36 69 70 78 104 5 20 2 17 -15 -10 -50 -84 -156 -113 -247
-69 -53 26 -41 35 27 20 37 -8 49 -6 96 17 60 29 72 49 22 37 -18 -5 -75 -9
-125 -9 l-93 -1 -12 30 c-19 45 -15 117 10 159 29 49 19 46 -15 -6z m174 -215
c-4 -3 -10 -3 -14 0 -3 4 0 7 7 7 7 0 10 -3 7 -7z"/>
<path d="M657 764 c-4 -4 7 -22 23 -40 34 -39 47 -104 30 -149 -8 -22 -8 -27
0 -19 17 17 31 90 24 122 -13 56 -57 105 -77 86z"/>
<path d="M443 748 c-23 -30 -24 -41 -2 -21 12 12 20 25 17 28 -3 3 -10 0 -15
-7z"/>
<path d="M42 583 l3 -158 25 0 c24 0 25 3 28 68 l3 67 74 0 74 0 3 -67 c3 -65
4 -68 28 -68 l25 0 3 158 3 157 -31 0 -30 0 0 -70 0 -70 -75 0 -75 0 0 70 0
70 -30 0 -31 0 3 -157z"/>
<path d="M810 581 l0 -161 90 0 c89 0 90 0 90 25 0 23 -4 24 -61 27 l-60 3 -2
130 -2 130 -27 3 -28 3 0 -160z"/>
<path d="M1040 580 l0 -160 25 0 25 0 0 160 0 160 -25 0 -25 0 0 -160z"/>
<path d="M1185 715 c-18 -17 -25 -35 -25 -63 0 -45 10 -56 84 -92 52 -26 67
-50 46 -75 -15 -18 -60 -19 -95 -3 -21 9 -29 9 -42 -4 -14 -15 -13 -18 13 -35
19 -12 46 -18 82 -18 46 0 57 4 78 28 26 30 32 83 14 117 -5 10 -27 24 -47 30
-55 18 -83 38 -83 60 0 32 36 44 82 29 34 -11 41 -11 49 2 15 24 -26 49 -83
49 -39 0 -54 -5 -73 -25z"/>
<path d="M1380 715 c0 -23 3 -25 50 -25 l50 0 0 -135 0 -135 25 0 25 0 0 135
0 135 50 0 c47 0 50 2 50 25 l0 25 -125 0 -125 0 0 -25z"/>
<path d="M1672 583 l3 -158 28 -3 27 -3 0 160 0 161 -30 0 -31 0 3 -157z"/>
<path d="M1862 720 c-48 -29 -72 -75 -72 -138 0 -60 17 -101 56 -131 49 -39
134 -40 184 -2 20 16 22 22 11 35 -12 14 -16 14 -42 1 -96 -50 -189 45 -145
149 22 52 70 72 128 51 33 -11 44 -11 50 -2 31 49 -102 78 -170 37z"/>
<path d="M495 722 c-5 -4 -17 -16 -25 -26 -15 -19 -14 -19 12 -2 16 11 35 15
48 11 28 -9 53 -61 46 -97 -7 -35 9 -29 18 8 18 69 -51 142 -99 106z"/>
<path d="M41 238 c2 -34 3 -37 6 -13 l5 29 18 -24 18 -23 13 24 13 24 7 -30
c6 -27 7 -26 8 13 1 48 -10 54 -28 15 -12 -27 -13 -27 -27 -8 -8 10 -14 22
-14 27 0 4 -4 8 -10 8 -5 0 -9 -19 -9 -42z"/>
<path d="M234 266 c-12 -31 0 -61 26 -63 14 -1 18 0 8 3 -12 4 -18 15 -18 34
0 19 6 30 18 33 12 4 11 5 -6 6 -12 0 -25 -5 -28 -13z"/>
<path d="M390 240 c0 -33 3 -40 19 -40 27 0 52 27 44 48 -8 21 -23 32 -45 32
-14 0 -18 -9 -18 -40z m45 0 c0 -16 -6 -26 -17 -28 -14 -3 -18 3 -18 28 0 25
4 31 18 28 11 -2 17 -12 17 -28z"/>
<path d="M563 240 c0 -25 2 -35 4 -22 2 12 2 32 0 45 -2 12 -4 2 -4 -23z"/>
<path d="M680 261 c-5 -11 -7 -26 -4 -35 7 -19 43 -31 55 -19 6 6 1 9 -13 9
-33 -1 -38 41 -6 53 l23 10 -22 0 c-12 1 -27 -8 -33 -18z"/>
<path d="M847 245 c-20 -42 -22 -54 -5 -37 16 16 45 15 51 0 4 -10 6 -10 6 0
1 12 -26 72 -32 72 -2 0 -11 -16 -20 -35z m33 -6 c0 -5 -7 -9 -15 -9 -9 0 -12
6 -9 15 6 15 24 11 24 -6z"/>
<path d="M1000 241 c0 -38 2 -41 28 -40 16 1 20 3 10 6 -12 3 -18 14 -18 33 0
16 -4 32 -10 35 -6 4 -10 -10 -10 -34z"/>
<path d="M1266 264 c-9 -8 -16 -19 -16 -24 0 -25 52 -51 64 -32 3 5 -5 8 -17
8 -32 -1 -36 41 -5 53 16 7 18 10 6 10 -9 1 -24 -6 -32 -15z"/>
<path d="M1422 243 c-2 -39 0 -43 21 -42 16 1 17 3 5 6 -11 3 -18 17 -21 41
l-4 37 -1 -42z"/>
<path d="M1568 273 c-10 -19 -8 -73 1 -73 6 0 11 18 11 40 0 38 -4 49 -12 33z"/>
<path d="M1686 273 c-3 -3 -5 -22 -5 -42 2 -30 3 -32 6 -8 2 15 6 27 9 27 3 0
16 -12 29 -27 l24 -28 0 45 c-1 38 -2 41 -8 15 l-6 -29 -21 26 c-12 15 -24 24
-28 21z"/>
<path d="M1863 240 c0 -25 2 -35 4 -22 2 12 2 32 0 45 -2 12 -4 2 -4 -23z"/>
<path d="M1980 260 c-15 -27 4 -60 33 -59 22 0 22 0 1 9 -40 16 -37 47 6 63
10 4 8 6 -7 6 -13 1 -27 -8 -33 -19z"/>
</g>
</svg>
